<svg xmlns="http://www.w3.org/2000/svg" viewBox="0 0 1600 900" preserveAspectRatio="xMidYMid slice">
  <defs>
    <linearGradient id="sky" x1="0" y1="0" x2="0" y2="1">
      <stop offset="0" stop-color="#0b1220"/>
      <stop offset="0.55" stop-color="#1f1647"/>
      <stop offset="1" stop-color="#5b1f4a"/>
    </linearGradient>
    <radialGradient id="sun" cx="0.78" cy="0.62" r="0.35">
      <stop offset="0" stop-color="#ffb86b" stop-opacity="0.95"/>
      <stop offset="0.45" stop-color="#ff6a3d" stop-opacity="0.45"/>
      <stop offset="1" stop-color="#ff6a3d" stop-opacity="0"/>
    </radialGradient>
    <linearGradient id="ridge1" x1="0" y1="0" x2="0" y2="1">
      <stop offset="0" stop-color="#1a1230"/>
      <stop offset="1" stop-color="#0a0716"/>
    </linearGradient>
    <linearGradient id="ridge2" x1="0" y1="0" x2="0" y2="1">
      <stop offset="0" stop-color="#2a1d4a"/>
      <stop offset="1" stop-color="#0e0a22"/>
    </linearGradient>
  </defs>
  <rect width="1600" height="900" fill="url(#sky)"/>
  <rect width="1600" height="900" fill="url(#sun)"/>
  <circle cx="1248" cy="558" r="86" fill="#ffd49a" opacity="0.75"/>
  <path d="M0,640 L160,560 L300,610 L460,520 L640,600 L820,540 L1020,620 L1200,560 L1380,640 L1600,580 L1600,900 L0,900 Z" fill="url(#ridge2)" opacity="0.85"/>
  <path d="M0,720 L180,680 L360,720 L540,660 L720,700 L900,650 L1080,710 L1260,670 L1440,720 L1600,680 L1600,900 L0,900 Z" fill="url(#ridge1)"/>
  <g opacity="0.55" fill="#fff">
    <circle cx="180" cy="160" r="1.2"/>
    <circle cx="320" cy="100" r="0.9"/>
    <circle cx="540" cy="220" r="1.1"/>
    <circle cx="760" cy="140" r="0.7"/>
    <circle cx="940" cy="200" r="1.0"/>
    <circle cx="1120" cy="80" r="0.8"/>
    <circle cx="1380" cy="180" r="1.3"/>
    <circle cx="80" cy="280" r="0.9"/>
    <circle cx="420" cy="320" r="0.6"/>
    <circle cx="680" cy="380" r="0.8"/>
  </g>
</svg>
